<svg xmlns="http://www.w3.org/2000/svg" viewBox="0 0 234.53 228.97"><defs><style>.cls-1,.cls-3{fill:none;stroke:#fff;stroke-miterlimit:10;}.cls-1{stroke-width:17px;}.cls-2{fill:#fff;}.cls-3{stroke-width:6px;}</style></defs><g id="图层_2" data-name="图层 2"><g id="icon-0"><rect class="cls-1" x="8.5" y="48.55" width="217.53" height="157.28" rx="21.28"/><path class="cls-2" d="M79.88-6.39h1.79A6.13,6.13,0,0,1,87.79-.27V53.84a0,0,0,0,1,0,0h-14a0,0,0,0,1,0,0V-.27a6.13,6.13,0,0,1,6.13-6.13Z" transform="translate(6.88 64.06) rotate(-45)"/><path class="cls-2" d="M145-6.39h14a0,0,0,0,1,0,0V47.72a6.13,6.13,0,0,1-6.13,6.13H151.1A6.13,6.13,0,0,1,145,47.72V-6.39a0,0,0,0,1,0,0Z" transform="translate(242.69 147.97) rotate(-135)"/><circle class="cls-2" cx="55.73" cy="215.95" r="13.02"/><circle class="cls-2" cx="180.33" cy="215.95" r="13.02"/><rect class="cls-2" x="46.12" y="96.55" width="45.28" height="18.04" transform="translate(-18.07 14.28) rotate(-10.49)"/><rect class="cls-2" x="146.81" y="96.55" width="45.28" height="18.04" transform="translate(316.85 240.22) rotate(-169.51)"/><path class="cls-3" d="M117.73,144.48v5.08a12.64,12.64,0,0,1-25.27.39"/><path class="cls-3" d="M143.6,150a12.64,12.64,0,0,1-25.27-.39v-5.08"/></g></g></svg>